<svg width="33" height="29" viewBox="0 0 33 29" fill="none" xmlns="http://www.w3.org/2000/svg">
<path d="M20.9487 2.76611H8.94873C8.4183 2.76611 7.90959 2.97683 7.53452 3.3519C7.15944 3.72697 6.94873 4.23568 6.94873 4.76611V16.7661C6.94873 17.2965 7.15944 17.8053 7.53452 18.1803C7.90959 18.5554 8.4183 18.7661 8.94873 18.7661H20.9487C21.4792 18.7661 21.9879 18.5554 22.3629 18.1803C22.738 17.8053 22.9487 17.2965 22.9487 16.7661V4.76611C22.9487 4.23568 22.738 3.72697 22.3629 3.3519C21.9879 2.97683 21.4792 2.76611 20.9487 2.76611ZM20.9487 16.7661H8.94873V4.76611H20.9487M13.4487 15.7661C14.1118 15.7661 14.7477 15.5027 15.2165 15.0339C15.6853 14.565 15.9487 13.9292 15.9487 13.2661V7.76611H18.9487V5.76611H14.9487V11.2661C14.5287 10.9561 14.0187 10.7661 13.4487 10.7661C12.7857 10.7661 12.1498 11.0295 11.681 11.4983C11.2121 11.9672 10.9487 12.6031 10.9487 13.2661C10.9487 13.9292 11.2121 14.565 11.681 15.0339C12.1498 15.5027 12.7857 15.7661 13.4487 15.7661ZM4.94873 6.76611H2.94873V20.7661C2.94873 21.2965 3.15944 21.8053 3.53452 22.1803C3.90959 22.5554 4.4183 22.7661 4.94873 22.7661H18.9487V20.7661H4.94873" fill="black"/>
<path d="M29.875 22.125H26.125V25.875H24.875V22.125H21.125V20.875H24.875V17.125H26.125V20.875H29.875V22.125Z" fill="black"/>
</svg>
