<svg width="44" height="43" viewBox="0 0 44 43" fill="none" xmlns="http://www.w3.org/2000/svg">
<path d="M22 35.8333C13.915 35.8333 7.33335 29.4012 7.33335 21.5C7.33335 13.5987 13.915 7.16665 22 7.16665C30.085 7.16665 36.6667 13.5987 36.6667 21.5C36.6667 29.4012 30.085 35.8333 22 35.8333ZM22 3.58331C19.5925 3.58331 17.2085 4.04674 14.9842 4.94714C12.7599 5.84753 10.7388 7.16727 9.0364 8.83098C5.59823 12.191 3.66669 16.7482 3.66669 21.5C3.66669 26.2518 5.59823 30.8089 9.0364 34.169C10.7388 35.8327 12.7599 37.1524 14.9842 38.0528C17.2085 38.9532 19.5925 39.4166 22 39.4166C26.8623 39.4166 31.5255 37.529 34.9636 34.169C38.4018 30.8089 40.3334 26.2518 40.3334 21.5C40.3334 19.1471 39.8591 16.8173 38.9378 14.6436C38.0165 12.4698 36.6661 10.4947 34.9636 8.83098C33.2612 7.16727 31.2402 5.84753 29.0159 4.94714C26.7916 4.04674 24.4076 3.58331 22 3.58331ZM23.8334 12.5416H20.1667V19.7083H12.8334V23.2916H20.1667V30.4583H23.8334V23.2916H31.1667V19.7083H23.8334V12.5416Z" fill="#868686"/>
</svg>
