<svg width="17" height="17" viewBox="0 0 17 17" fill="none" xmlns="http://www.w3.org/2000/svg">
<path d="M11.3334 8.49992C11.3334 8.1242 11.4826 7.76386 11.7483 7.49818C12.014 7.23251 12.3743 7.08325 12.75 7.08325C13.1258 7.08325 13.4861 7.23251 13.7518 7.49818C14.0175 7.76386 14.1667 8.1242 14.1667 8.49992C14.1667 8.87564 14.0175 9.23598 13.7518 9.50165C13.4861 9.76733 13.1258 9.91659 12.75 9.91659C12.3743 9.91659 12.014 9.76733 11.7483 9.50165C11.4826 9.23598 11.3334 8.87564 11.3334 8.49992ZM7.08337 8.49992C7.08337 8.1242 7.23263 7.76386 7.49831 7.49818C7.76398 7.23251 8.12432 7.08325 8.50004 7.08325C8.87576 7.08325 9.2361 7.23251 9.50177 7.49818C9.76745 7.76386 9.91671 8.1242 9.91671 8.49992C9.91671 8.87564 9.76745 9.23598 9.50177 9.50165C9.2361 9.76733 8.87576 9.91659 8.50004 9.91659C8.12432 9.91659 7.76398 9.76733 7.49831 9.50165C7.23263 9.23598 7.08337 8.87564 7.08337 8.49992ZM2.83337 8.49992C2.83337 8.1242 2.98263 7.76386 3.24831 7.49818C3.51398 7.23251 3.87432 7.08325 4.25004 7.08325C4.62576 7.08325 4.9861 7.23251 5.25178 7.49818C5.51745 7.76386 5.66671 8.1242 5.66671 8.49992C5.66671 8.87564 5.51745 9.23598 5.25178 9.50165C4.9861 9.76733 4.62576 9.91659 4.25004 9.91659C3.87432 9.91659 3.51398 9.76733 3.24831 9.50165C2.98263 9.23598 2.83337 8.87564 2.83337 8.49992Z" fill="#848484"/>
</svg>
