<svg width="109" height="108" viewBox="0 0 109 108" fill="none" xmlns="http://www.w3.org/2000/svg">
<path d="M43.1458 13.5C50.9752 13.5 58.484 16.5817 64.0202 22.0671C69.5564 27.5526 72.6667 34.9924 72.6667 42.75C72.6667 49.995 69.9871 56.655 65.5817 61.785L66.8079 63H70.3958L93.1042 85.5L86.2917 92.25L63.5833 69.75V66.195L62.3571 64.98C57.1796 69.345 50.4579 72 43.1458 72C35.3164 72 27.8077 68.9183 22.2715 63.4329C16.7352 57.9474 13.625 50.5076 13.625 42.75C13.625 34.9924 16.7352 27.5526 22.2715 22.0671C27.8077 16.5817 35.3164 13.5 43.1458 13.5ZM43.1458 22.5C31.7917 22.5 22.7083 31.5 22.7083 42.75C22.7083 54 31.7917 63 43.1458 63C54.5 63 63.5833 54 63.5833 42.75C63.5833 31.5 54.5 22.5 43.1458 22.5Z" fill="black"/>
</svg>
