<svg width="32" height="42" viewBox="0 0 32 42" fill="none" xmlns="http://www.w3.org/2000/svg">
<path fill-rule="evenodd" clip-rule="evenodd" d="M21.0227 9.48864H24.5455C24.2803 7.99242 23.7973 6.66193 23.0966 5.49716C22.3958 4.32292 21.5246 3.3286 20.483 2.51421C19.4413 1.69034 18.2718 1.06534 16.9744 0.639205C15.6865 0.213069 14.3087 0 12.8409 0C10.3598 0 8.15341 0.606061 6.22159 1.81818C4.28977 3.0303 2.76988 4.75379 1.66193 6.98864C0.553973 9.22349 -4.05312e-06 11.875 -4.05312e-06 14.9432C-4.05312e-06 18.0114 0.553973 20.6629 1.66193 22.8977C2.76988 25.1326 4.28977 26.8561 6.22159 28.0682C8.15341 29.2803 10.3598 29.8864 12.8409 29.8864C14.3087 29.8864 15.6865 29.6733 16.9744 29.2472C17.967 28.9211 18.8847 28.4815 19.7276 27.9282L22.4446 28.7045C23.4673 28.9886 24.419 29.3201 25.2997 29.6989C26.1804 30.0777 26.8906 30.5701 27.4304 31.1761C27.9702 31.7822 28.2401 32.5682 28.2401 33.5341C28.2401 34.5947 27.9276 35.5227 27.3026 36.3182C26.6776 37.1042 25.83 37.7197 24.7599 38.1648C23.6899 38.6004 22.4825 38.8182 21.1378 38.8182C19.9825 38.8182 18.9029 38.6477 17.8991 38.3068C16.9048 37.9564 16.081 37.4261 15.4276 36.7159C14.7836 35.9962 14.4143 35.0871 14.3196 33.9886H10.6832C10.7969 35.5795 11.2846 36.9763 12.1463 38.179C13.0175 39.3816 14.2107 40.3191 15.7258 40.9915C17.2505 41.6638 19.0544 42 21.1378 42C23.3726 42 25.2713 41.6259 26.8338 40.8778C28.4058 40.1297 29.599 39.1212 30.4133 37.8523C31.2372 36.5833 31.6491 35.1629 31.6491 33.5909C31.6491 32.2273 31.3698 31.0767 30.8111 30.1392C30.2524 29.2017 29.5421 28.4347 28.6804 27.8381C27.8281 27.232 26.9332 26.7538 25.9957 26.4034C25.0677 26.053 24.2249 25.7784 23.4673 25.5795L22.4826 25.3144C22.7 25.0192 22.9047 24.7107 23.0966 24.3892C23.7973 23.215 24.2803 21.8845 24.5455 20.3977H21.0227C20.8144 21.4015 20.4498 22.2917 19.929 23.0682C19.63 23.5167 19.2921 23.9248 18.9153 24.2924C18.8564 24.272 18.797 24.2512 18.7372 24.2301C18.0933 23.9934 17.4777 23.6951 16.8906 23.3352C16.3035 22.9659 15.8205 22.5066 15.4418 21.9574C15.0724 21.3987 14.8878 20.7311 14.8878 19.9545C14.8878 19.0265 15.1529 18.1979 15.6832 17.4688C16.223 16.7396 16.9711 16.1667 17.9276 15.75C18.8935 15.3333 20.0204 15.125 21.3082 15.125C23.0696 15.125 24.5563 15.5227 25.7685 16.3182C26.9806 17.1136 27.6719 18.2311 27.8423 19.6705H31.2514C31.2041 18.2027 30.7495 16.8911 29.8878 15.7358C29.0355 14.5805 27.8802 13.6714 26.4219 13.0085C24.9635 12.3362 23.2969 12 21.4219 12C19.5658 12 17.8849 12.3409 16.3793 13.0227C14.883 13.6951 13.6899 14.642 12.7997 15.8636C11.919 17.0758 11.4787 18.4962 11.4787 20.125C11.4787 22.0852 12.1416 23.6714 13.4673 24.8835C14.0233 25.3919 14.6626 25.8511 15.3852 26.2612C14.5685 26.481 13.7204 26.5909 12.8409 26.5909C11.0795 26.5909 9.4839 26.1458 8.05397 25.2557C6.63352 24.3655 5.50189 23.054 4.65909 21.321C3.82575 19.5881 3.40909 17.4621 3.40909 14.9432C3.40909 12.4242 3.82575 10.2983 4.65909 8.56534C5.50189 6.83239 6.63352 5.52083 8.05397 4.63068C9.4839 3.74053 11.0795 3.29546 12.8409 3.29546C13.8068 3.29546 14.7348 3.42803 15.625 3.69318C16.5151 3.95833 17.3248 4.35606 18.054 4.88637C18.7926 5.4072 19.4176 6.05114 19.929 6.81818C20.4498 7.58523 20.8144 8.47538 21.0227 9.48864Z" fill="black"/>
</svg>
