<svg width="114" height="119" viewBox="0 0 114 119" fill="none" xmlns="http://www.w3.org/2000/svg">
<path d="M57 14.875L9.5 59.5H23.75V99.1667H90.25V59.5H104.5M61.75 89.25H52.25V84.2917H61.75M64.125 72.2925V79.3333H49.875V72.2925C47.1584 70.6552 45.0352 68.128 43.8347 65.1028C42.6343 62.0775 42.4237 58.7234 43.2356 55.5604C44.0475 52.3975 45.8365 49.6026 48.3251 47.6092C50.8138 45.6159 53.8631 44.5354 57 44.5354C60.1369 44.5354 63.1862 45.6159 65.6749 47.6092C68.1635 49.6026 69.9525 52.3975 70.7644 55.5604C71.5763 58.7234 71.3657 62.0775 70.1653 65.1028C68.9648 68.128 66.8416 70.6552 64.125 72.2925Z" fill="black"/>
</svg>
