<svg width="32" height="33" viewBox="0 0 32 33" fill="none" xmlns="http://www.w3.org/2000/svg">
<path d="M16 21.3125C14.7623 21.3125 13.5753 20.8055 12.7002 19.903C11.825 19.0004 11.3333 17.7764 11.3333 16.5C11.3333 15.2236 11.825 13.9996 12.7002 13.097C13.5753 12.1945 14.7623 11.6875 16 11.6875C17.2377 11.6875 18.4247 12.1945 19.2998 13.097C20.175 13.9996 20.6667 15.2236 20.6667 16.5C20.6667 17.7764 20.175 19.0004 19.2998 19.903C18.4247 20.8055 17.2377 21.3125 16 21.3125ZM25.9067 17.8338C25.96 17.3938 26 16.9537 26 16.5C26 16.0463 25.96 15.5925 25.9067 15.125L28.72 12.8837C28.9733 12.6775 29.04 12.3062 28.88 12.0037L26.2133 7.24625C26.0533 6.94375 25.6933 6.82 25.4 6.94375L22.08 8.31875C21.3867 7.7825 20.6667 7.315 19.8267 6.97125L19.3333 3.3275C19.28 2.9975 19 2.75 18.6667 2.75H13.3333C13 2.75 12.72 2.9975 12.6667 3.3275L12.1733 6.97125C11.3333 7.315 10.6133 7.7825 9.92 8.31875L6.6 6.94375C6.30667 6.82 5.94667 6.94375 5.78667 7.24625L3.12 12.0037C2.94667 12.3062 3.02667 12.6775 3.28 12.8837L6.09333 15.125C6.04 15.5925 6 16.0463 6 16.5C6 16.9537 6.04 17.3938 6.09333 17.8338L3.28 20.1163C3.02667 20.3225 2.94667 20.6938 3.12 20.9963L5.78667 25.7537C5.94667 26.0562 6.30667 26.1663 6.6 26.0563L9.92 24.6675C10.6133 25.2175 11.3333 25.685 12.1733 26.0288L12.6667 29.6725C12.72 30.0025 13 30.25 13.3333 30.25H18.6667C19 30.25 19.28 30.0025 19.3333 29.6725L19.8267 26.0288C20.6667 25.6713 21.3867 25.2175 22.08 24.6675L25.4 26.0563C25.6933 26.1663 26.0533 26.0562 26.2133 25.7537L28.88 20.9963C29.04 20.6938 28.9733 20.3225 28.72 20.1163L25.9067 17.8338Z" fill="#444444" fill-opacity="0.41"/>
</svg>
